<?xml version="1.0" standalone="no"?>
<!DOCTYPE svg PUBLIC "-//W3C//DTD SVG 20010904//EN"
 "http://www.w3.org/TR/2001/REC-SVG-20010904/DTD/svg10.dtd">
<svg version="1.0" xmlns="http://www.w3.org/2000/svg"
 width="2199.000000pt" height="2199.000000pt" viewBox="0 0 2199.000000 2199.000000"
 preserveAspectRatio="xMidYMid meet">
<metadata>
Created by potrace 1.14, written by Peter Selinger 2001-2017
</metadata>
<g transform="translate(0.000000,2199.000000) scale(0.100000,-0.100000)"
fill="#000000" stroke="none">
<path d="M19020 19910 c-19 -5 -44 -12 -55 -14 -146 -33 -158 -38 -235 -96
-50 -38 -95 -84 -126 -127 -44 -62 -99 -188 -111 -255 -3 -16 -8 -29 -12 -29
-3 -1 -40 -2 -81 -4 -41 -1 -85 -5 -97 -9 -12 -4 -32 -9 -45 -11 -138 -27
-192 -47 -267 -103 -54 -39 -90 -75 -115 -114 -21 -31 -44 -62 -51 -68 -8 -6
-26 -63 -41 -126 -15 -63 -30 -114 -33 -114 -3 0 -57 13 -120 28 -88 21 -138
28 -217 27 l-103 0 -35 110 c-19 60 -38 121 -42 135 -6 22 -58 106 -73 120 -4
3 -17 21 -30 40 -13 19 -58 59 -100 87 -63 44 -93 57 -176 77 -162 40 -167 40
-305 7 -110 -27 -134 -37 -200 -83 -54 -37 -90 -72 -129 -126 -57 -79 -78
-126 -117 -262 -14 -47 -31 -90 -39 -96 -7 -5 -52 -9 -102 -8 -58 1 -117 -5
-173 -18 -47 -11 -92 -21 -100 -23 -118 -25 -226 -99 -306 -210 -30 -41 -54
-80 -54 -86 0 -6 -6 -6 -18 0 -10 5 -67 22 -127 37 -95 23 -133 27 -273 29
-89 1 -163 4 -165 6 -1 2 -24 74 -51 159 -27 85 -52 165 -57 177 -14 37 -118
172 -147 190 -15 10 -46 32 -70 49 -36 27 -109 53 -193 68 -7 1 -39 8 -69 15
-52 12 -65 11 -186 -17 -120 -27 -135 -33 -205 -83 -54 -39 -93 -77 -135 -134
-59 -81 -66 -98 -134 -317 -28 -91 -37 -108 -54 -109 -12 0 -82 -2 -156 -3
-114 -3 -154 -8 -259 -35 -106 -27 -133 -39 -188 -79 -83 -60 -98 -76 -156
-160 -48 -69 -49 -70 -110 -82 -34 -8 -163 -47 -287 -87 -176 -58 -253 -78
-355 -93 -235 -34 -241 -34 -229 -19 15 19 70 119 115 209 31 63 66 180 94
322 2 9 -11 77 -29 151 -25 102 -40 144 -62 173 -16 22 -40 55 -53 74 -24 35
-103 100 -121 100 -6 0 -10 4 -10 8 0 18 -63 42 -191 72 l-135 31 -133 -30
c-130 -30 -155 -41 -326 -136 -67 -37 -189 -107 -245 -139 -67 -40 -326 -166
-339 -166 -6 0 -19 -4 -29 -9 -159 -88 -593 -110 -967 -51 -181 28 -179 28
-345 50 -85 12 -166 23 -180 25 -14 2 -52 7 -85 10 -33 4 -76 8 -95 11 -515
61 -982 83 -1645 79 -792 -5 -1332 -48 -1817 -146 -57 -11 -114 -23 -128 -25
-14 -3 -72 -16 -130 -30 -58 -14 -116 -28 -130 -30 -14 -3 -113 -27 -220 -55
-276 -71 -700 -214 -885 -299 -22 -10 -62 -28 -90 -40 -117 -52 -265 -124
-390 -190 -74 -39 -308 -175 -330 -193 -5 -4 -52 -35 -103 -70 -52 -34 -104
-69 -116 -77 -25 -17 -174 -129 -193 -145 -7 -5 -18 -14 -25 -20 -58 -45 -129
-105 -155 -132 -18 -17 -48 -44 -67 -58 -19 -14 -51 -50 -71 -80 -36 -52 -39
-54 -94 -60 -159 -18 -544 -113 -666 -165 -147 -62 -255 -125 -414 -243 -172
-127 -283 -238 -407 -407 -120 -163 -142 -198 -215 -340 -76 -150 -141 -378
-235 -828 l-44 -213 0 -255 c0 -283 -4 -257 97 -684 55 -234 106 -394 173
-545 5 -11 19 -42 30 -70 24 -54 66 -145 137 -291 70 -147 147 -246 243 -315
80 -56 97 -63 240 -94 118 -26 109 -26 245 8 118 30 137 38 205 86 73 53 143
133 182 209 10 20 18 30 18 22 0 -114 39 -575 66 -788 l16 -124 -33 -76 c-18
-43 -45 -105 -60 -140 -16 -34 -42 -100 -58 -145 -16 -45 -38 -106 -50 -134
-11 -29 -19 -53 -16 -53 2 0 -5 -26 -16 -57 -17 -49 -30 -97 -64 -233 -22 -91
-58 -240 -61 -260 -3 -14 -9 -43 -14 -65 -44 -200 -64 -445 -57 -718 6 -288
30 -462 104 -767 19 -80 36 -153 38 -162 18 -87 94 -327 126 -395 10 -24 19
-47 19 -52 0 -5 6 -22 14 -38 8 -15 36 -71 61 -123 56 -114 51 -106 145 -250
84 -130 91 -137 186 -202 61 -42 84 -51 201 -78 l131 -30 134 30 c122 28 139
35 208 82 41 28 77 55 80 60 3 4 102 -42 220 -103 239 -122 822 -412 915 -454
228 -104 512 -221 705 -292 52 -19 104 -38 115 -43 42 -17 244 -90 265 -96 8
-2 76 -24 150 -49 174 -59 386 -125 580 -182 151 -44 755 -198 815 -209 17 -2
38 -7 47 -10 9 -3 25 -7 35 -9 10 -2 81 -18 158 -35 77 -17 160 -35 185 -40
25 -5 56 -12 70 -15 61 -12 228 -45 255 -49 130 -21 165 -29 165 -37 0 -5 -4
-9 -10 -9 -6 0 -18 -8 -28 -18 -64 -64 -370 -224 -562 -293 -162 -59 -385
-124 -376 -111 4 7 18 78 18 97 1 6 -9 53 -21 106 -19 78 -30 106 -66 153 -67
90 -134 132 -253 159 -99 22 -106 22 -923 21 -820 -1 -824 -1 -918 -24 -127
-30 -189 -73 -262 -182 l-26 -39 -39 53 c-47 65 -47 65 -110 110 -47 33 -77
43 -224 75 -14 3 -397 5 -852 5 -725 -1 -835 -3 -895 -17 -37 -9 -79 -18 -92
-21 -43 -9 -138 -85 -180 -144 -32 -46 -46 -80 -64 -157 l-23 -99 23 -89 c12
-50 25 -103 27 -120 3 -16 17 -77 32 -135 34 -139 38 -158 48 -205 2 -11 25
-105 50 -210 63 -264 129 -539 177 -745 23 -96 50 -211 61 -255 10 -44 25
-107 33 -140 8 -33 29 -125 48 -205 63 -264 99 -415 102 -430 2 -8 17 -73 35
-145 17 -71 40 -166 50 -210 10 -44 33 -138 50 -210 17 -71 34 -141 36 -155 3
-14 20 -88 39 -165 18 -77 48 -201 66 -275 76 -322 73 -314 123 -384 26 -36
51 -66 55 -66 5 0 28 -15 52 -33 24 -17 51 -34 59 -36 8 -2 42 -10 75 -19 53
-14 208 -16 1273 -18 l1213 -3 94 24 c128 31 198 80 262 181 28 44 75 210 98
344 3 19 8 42 10 50 2 8 7 29 10 45 7 40 10 57 34 166 11 52 22 108 25 124 3
17 8 39 10 50 5 22 48 226 72 345 9 41 18 84 20 95 2 11 6 29 8 40 8 37 46
217 50 239 2 11 7 32 10 46 3 14 8 36 10 50 3 14 14 68 25 120 11 52 23 110
26 128 3 19 14 71 24 115 11 45 22 96 24 112 5 28 20 102 31 150 2 11 19 94
38 184 l33 163 238 -5 c131 -2 241 -8 245 -11 3 -4 7 -530 8 -1169 1 -1160 1
-1162 23 -1253 40 -165 143 -268 310 -310 84 -21 99 -22 840 -23 777 -1 753
-2 906 35 11 3 26 6 32 8 7 1 41 23 76 48 63 45 146 150 148 187 1 17 1 18 21
106 8 33 14 75 13 92 l-1 33 40 -38 c22 -20 43 -40 46 -43 9 -10 153 -114 210
-151 115 -76 326 -162 510 -208 47 -11 99 -25 115 -30 72 -21 345 -75 435 -85
25 -3 61 -7 80 -10 113 -14 223 -19 460 -20 299 0 456 10 635 40 11 1 40 6 64
9 156 22 644 150 675 178 6 4 16 8 24 8 24 0 194 86 262 132 140 95 156 108
200 150 58 55 162 199 200 277 33 66 91 281 115 426 24 142 24 428 0 555 -37
199 -103 435 -142 508 -30 56 -103 167 -132 201 -12 13 -21 27 -21 31 0 15
-116 125 -180 170 -19 13 -41 30 -48 37 -7 7 -19 13 -25 13 -33 0 19 20 103
40 168 39 262 128 305 290 l20 75 218 0 c140 0 217 -3 218 -10 0 -5 2 -602 3
-1325 l2 -1315 23 -89 c26 -103 71 -171 156 -235 42 -32 74 -46 153 -65 l100
-26 784 1 783 1 98 24 c77 19 111 33 153 64 78 58 131 135 150 217 9 37 18 77
22 88 3 11 6 612 8 1335 1 723 2 1320 3 1325 1 15 421 15 421 1 0 -6 1 -598 1
-1316 1 -850 5 -1319 11 -1345 13 -49 13 -50 23 -100 10 -52 80 -156 125 -186
19 -13 45 -31 56 -42 12 -10 68 -29 125 -43 l104 -24 780 0 c675 1 789 3 840
16 33 9 68 18 78 20 38 7 63 17 79 32 16 13 20 13 43 -2 13 -9 70 -27 125 -40
l100 -25 727 1 c682 0 730 1 799 19 40 10 82 20 93 22 21 3 96 53 135 91 26
24 79 102 90 130 3 11 9 35 12 55 3 20 11 56 18 81 9 34 12 198 10 650 -2 781
-4 827 -60 1052 -29 117 -38 137 -109 233 -52 70 -53 73 -37 96 9 13 22 30 29
37 40 42 113 250 139 402 3 14 7 32 10 41 4 16 10 52 20 134 7 62 7 265 -1
336 -12 118 -71 375 -107 469 -45 118 -148 272 -247 370 -64 64 -226 181 -322
234 -93 51 -210 92 -374 131 -190 45 -248 55 -400 69 -318 30 -684 38 -1675
38 -788 0 -818 -1 -900 -21 l-85 -20 -95 22 -95 22 -1710 -1 -1710 -2 -95 -22
c-73 -18 -108 -32 -151 -63 -62 -43 -136 -139 -145 -187 -4 -16 -8 -30 -11
-30 -2 0 -30 16 -61 37 -127 82 -322 155 -564 214 -76 18 -136 35 -134 37 4 3
96 28 136 37 29 7 226 66 335 102 133 43 429 150 480 173 11 5 49 21 85 36 86
35 226 106 273 138 21 14 40 26 42 26 7 0 226 160 280 204 85 70 163 156 257
285 162 220 219 342 283 601 20 80 38 156 40 170 3 14 7 36 10 50 10 47 24
125 30 175 13 101 16 121 26 185 5 36 12 87 16 113 3 26 11 50 16 54 6 4 54 8
106 9 53 2 159 5 236 8 77 3 201 8 275 11 74 2 198 7 275 10 77 3 196 8 265
10 69 3 175 7 235 10 61 3 160 7 220 10 392 19 692 37 850 50 33 3 92 7 130
10 39 3 90 7 115 10 25 2 72 7 105 10 33 4 71 8 85 10 126 18 188 28 205 31
21 4 56 11 105 19 17 3 63 12 103 21 39 9 90 20 112 24 22 5 78 18 125 30 47
11 92 23 100 25 8 2 38 8 65 15 354 80 830 269 1158 459 49 28 93 51 98 51 5
0 9 4 9 9 0 5 8 11 18 15 9 3 26 11 36 18 11 7 65 43 120 80 93 62 331 231
366 261 8 7 49 39 90 72 41 33 80 64 86 70 6 5 40 35 75 65 76 65 368 358 420
421 20 24 66 82 103 129 36 47 69 90 73 95 33 41 117 161 149 210 21 33 41 62
44 65 37 33 209 374 264 523 35 94 99 308 110 364 3 16 7 37 9 48 48 204 67
288 72 325 3 25 8 56 10 70 24 157 25 233 4 313 -10 39 -20 83 -23 97 -3 14
-9 39 -12 55 -4 17 -34 68 -67 115 -49 69 -75 96 -143 143 -46 31 -90 57 -97
57 -6 0 -63 12 -125 26 l-112 27 -154 -37 c-106 -26 -160 -43 -172 -57 -13
-14 -21 -16 -28 -9 -8 8 -1 20 24 42 178 155 330 306 433 430 15 18 35 43 45
55 10 12 27 34 38 48 10 15 24 32 29 39 15 16 56 73 100 136 21 30 41 57 45
60 3 3 43 64 89 135 104 164 233 426 304 620 130 352 266 805 267 884 0 13 -4
40 -10 60 -10 41 -44 183 -45 191 0 7 -38 66 -78 122 -19 26 -68 72 -110 103
-62 44 -92 58 -159 75 -179 44 -183 44 -279 21 -48 -12 -90 -21 -93 -21 -4 0
16 22 43 50 27 27 71 75 97 107 27 32 54 63 59 69 6 6 21 26 35 44 14 18 40
49 57 69 18 20 33 41 33 48 0 6 3 13 8 15 4 2 35 41 69 88 34 47 66 90 70 95
22 28 169 254 188 290 7 11 33 58 60 104 44 78 127 248 188 381 13 30 44 107
67 170 56 149 57 154 59 163 0 4 7 22 15 41 7 18 53 152 101 297 49 145 92
270 98 277 5 6 7 12 4 12 -3 0 -1 15 4 33 10 31 24 93 35 151 3 16 9 38 13 50
5 11 4 36 -1 55 -5 18 -11 41 -13 50 -27 139 -48 196 -91 253 -25 33 -48 65
-50 72 -3 6 -23 25 -46 41 -23 17 -61 45 -86 64 -36 26 -73 40 -186 68 -159
39 -163 39 -347 -5 -63 -15 -92 -30 -163 -81 -48 -35 -124 -99 -170 -144 -47
-45 -149 -143 -227 -217 -78 -74 -165 -156 -192 -182 -28 -27 -53 -48 -56 -48
-3 1 -28 33 -55 73 -36 54 -70 88 -127 130 -73 53 -87 59 -206 88 -75 18 -160
31 -205 33 -42 1 -79 4 -81 6 -2 3 -14 41 -27 85 -23 78 -56 155 -70 165 -3 3
-20 25 -37 50 -37 53 -57 73 -141 130 -50 34 -82 48 -165 67 -126 30 -172 35
-217 23z m-9105 -7796 c11 -1 21 -3 23 -3 2 -1 0 -6 -3 -11 -4 -7 -12 -7 -25
0 -10 5 -47 11 -82 11 -44 1 -57 4 -43 10 11 5 40 6 65 2 25 -3 54 -7 65 -9z
m-872 -5568 c63 -1 63 2 2 -43 -68 -51 -84 -63 -95 -65 -13 -3 -44 97 -35 112
3 5 20 6 38 2 17 -3 58 -6 90 -6z m-13 -2167 c0 -6 -50 -19 -74 -19 -7 0 -12
18 -12 49 l0 48 43 -35 c24 -20 43 -39 43 -43z"/>
</g>
</svg>
